<svg width="188" height="97" viewBox="0 0 188 97" fill="none" xmlns="http://www.w3.org/2000/svg">
<path d="M124.756 54.603C124.433 54.5025 124.106 54.4021 123.774 54.297C123.94 53.5825 124.099 52.8001 124.239 51.9758C124.924 51.5088 125.609 51.0254 126.282 50.528C126.317 50.9576 126.34 51.3686 126.361 51.7773C125.835 52.7885 125.303 53.7436 124.756 54.603ZM106.402 22.5143C106.793 22.2131 107.183 21.9328 107.564 21.6643C107.58 21.4658 107.599 21.279 107.618 21.0968C107.999 20.9497 108.375 20.8049 108.746 20.6718C109.193 21.2603 109.707 21.9936 110.266 22.8436C110.088 23.0281 109.91 23.2172 109.73 23.4111C109.127 23.6166 108.515 23.8314 107.905 24.0486C107.975 23.3877 108.052 22.7735 108.139 22.2201C107.903 22.5984 107.664 23 107.421 23.4204C107.003 23.4344 106.585 23.4507 106.171 23.4671C106.246 23.1332 106.323 22.8156 106.402 22.5143ZM137.736 38.6345C137.138 39.3608 136.439 40.1291 135.654 40.9301C135.64 41.4111 135.621 41.8969 135.604 42.3756C135.308 42.7936 135.001 43.2093 134.679 43.6343C134.373 42.3803 134.027 41.0772 133.625 39.7484C133.179 39.0409 132.699 38.3193 132.192 37.586C131.01 37.2918 129.727 36.9929 128.376 36.6846C127.978 36.3016 127.567 35.921 127.151 35.5357C126.95 35.6571 126.754 35.7762 126.553 35.8953C126.868 36.6566 127.177 37.4179 127.469 38.1815C127.925 37.934 128.378 37.6841 128.813 37.4412C129.406 37.9503 129.979 38.4524 130.528 38.9428C128.902 40.0801 127.107 41.2757 125.216 42.483C124.316 40.5097 123.328 38.4524 122.288 36.409C122.073 36.4417 121.858 36.4768 121.645 36.5118C122.713 38.9451 123.741 41.3995 124.634 43.7277C125.62 43.2303 126.579 42.7329 127.506 42.2448C127.191 43.3447 126.85 44.44 126.487 45.5118C125.506 46.4319 124.492 47.338 123.47 48.2231C123.519 49.4677 123.545 50.6587 123.54 51.7586C122.972 52.1486 122.407 52.5269 121.837 52.8936C120.673 54.4535 119.523 55.8033 118.431 56.8471C117.515 56.9662 116.606 57.076 115.702 57.1811C115.022 56.1162 114.213 54.6613 113.334 52.9333C113.542 52.1416 113.767 51.2986 113.989 50.4019C113.435 48.8466 112.848 47.1465 112.254 45.3834C110.266 45.5048 108.298 45.6099 106.374 45.6963C105.262 44.6501 104.163 43.5829 103.093 42.511C103.233 40.7923 103.409 39.0362 103.612 37.2894C104.657 35.9864 105.736 34.6833 106.821 33.4036C108.868 33.0253 110.96 32.6586 113.037 32.3107C113.168 32.8455 113.297 33.3849 113.428 33.9267C114.281 34.4708 115.134 35.0266 115.994 35.5824C116.323 35.127 116.641 34.674 116.961 34.2303C118.263 34.5665 119.549 34.9075 120.815 35.2508C121.138 35.0546 121.456 34.8608 121.776 34.6693C121.907 34.1929 122.026 33.7235 122.15 33.2588C121.294 33.1 120.423 32.9365 119.544 32.7777C119.247 32.2943 118.948 31.8109 118.651 31.3345C118.438 31.2341 118.228 31.1314 118.022 31.0263C117.859 31.6171 117.691 32.2196 117.518 32.8291C117.116 32.3387 116.716 31.8553 116.314 31.3766C116.335 30.9796 116.356 30.5873 116.368 30.1996C115.842 29.805 115.318 29.4196 114.802 29.0413C114.489 28.8965 114.18 28.7541 113.874 28.614C113.904 28.9853 113.925 29.3636 113.958 29.7466C114.606 30.1576 115.262 30.5756 115.919 31.0029C115.587 31.3672 115.253 31.7409 114.912 32.1215C114.433 31.512 113.958 30.9142 113.493 30.3304C113.154 29.9638 112.822 29.6018 112.488 29.2468C111.712 29.6041 110.929 29.9754 110.146 30.3491C109.585 31.1571 109.018 31.9884 108.452 32.8361C107.625 32.7193 106.807 32.6073 105.996 32.4975C105.984 31.491 105.979 30.5079 105.989 29.5668C107.01 29.6088 108.043 29.6555 109.09 29.7116C108.777 29.2165 108.468 28.7307 108.165 28.259C107.987 27.8737 107.812 27.4954 107.639 27.1311C108.419 26.8929 109.202 26.657 109.98 26.4329C110.425 25.9355 110.859 25.4567 111.292 24.999C111.633 24.978 111.976 24.9546 112.315 24.9336C112.25 24.6791 112.182 24.4292 112.117 24.1887C112.341 23.9598 112.556 23.745 112.771 23.5278C112.935 23.8828 113.1 24.2541 113.266 24.6394C114.215 24.6581 115.164 24.6861 116.108 24.7165C116.351 24.1793 116.578 23.6703 116.8 23.1939C117.158 23.2873 117.52 23.383 117.88 23.4764C117.73 23.1402 117.581 22.8202 117.433 22.5143C117.959 22.4069 118.466 22.3041 118.976 22.2061C118.791 22.0683 118.607 21.9375 118.424 21.8091C117.973 21.8815 117.508 21.9609 117.041 22.0426C116.845 21.7717 116.653 21.5148 116.461 21.272C116.436 21.272 116.412 21.2696 116.389 21.2696C116.398 21.2509 116.407 21.2346 116.419 21.2159C116.342 21.1155 116.26 21.0174 116.178 20.9263C116.354 20.854 116.529 20.7816 116.702 20.7162C116.84 20.4826 116.95 20.3098 117.074 20.1207C116.905 20.1067 116.732 20.0903 116.562 20.0763C116.319 20.2234 116.069 20.3916 115.814 20.5667C115.608 20.8329 115.393 21.1342 115.169 21.4564C115.449 21.6409 115.732 21.8278 116.015 22.0239C115.781 22.5003 115.538 23.0281 115.276 23.5932C114.853 23.7146 114.428 23.8361 113.996 23.9622C113.753 23.376 113.512 22.8319 113.28 22.3298C112.797 22.519 112.301 22.7128 111.803 22.9183C111.572 22.8156 111.345 22.7198 111.119 22.6217C111.17 22.1243 111.226 21.6643 111.282 21.2556C111.698 21.0641 112.105 20.889 112.502 20.7232C112.843 20.2865 113.171 19.9269 113.474 19.649C114.246 19.4925 114.987 19.3641 115.692 19.259C117.487 19.3407 119.357 19.4715 121.252 19.6303C123.882 19.5415 127.065 19.4271 128.469 19.3594C124.216 16.013 118.854 14 113.019 14C107.064 14 101.602 16.0877 97.3063 19.5579C97.5938 19.5976 97.8789 19.6396 98.1687 19.684C98.3393 20.1113 98.5333 20.5737 98.7624 21.0921C98.8372 21.356 98.9189 21.6386 99.0078 21.9305C98.5544 22.3625 98.108 22.8296 97.6733 23.327C97.5821 23.5722 97.4933 23.8197 97.4068 24.0766C97.075 24.2634 96.7525 24.4549 96.4299 24.6464C96.2196 25.3446 96.0256 26.0826 95.8457 26.8485C95.4507 26.7925 95.0604 26.7388 94.6841 26.6874C94.42 25.1602 94.2681 23.8477 94.1466 22.6194C92.985 23.9528 91.9497 25.4007 91.0873 26.963C91.2159 26.8555 91.335 26.7505 91.4659 26.6454C91.8001 28.3338 92.2021 30.1856 92.749 32.2009C91.6506 32.9085 90.6643 33.6114 89.8136 34.2886C89.1943 34.8608 88.6614 35.4236 88.201 35.963C88.0818 36.9578 88 37.969 88 38.9965C88 41.1286 88.2968 43.1883 88.797 45.1662C89.241 45.3274 89.7248 45.4862 90.2623 45.6426C91.0803 46.5767 92.0128 47.5248 93.0388 48.4613C93.2632 49.1315 93.5015 49.79 93.7516 50.4392C95.0838 51.2659 96.5398 52.0692 98.0566 52.8235C97.5985 54.241 97.2456 55.4787 96.9815 56.5459C96.3902 56.5646 95.8176 56.5786 95.252 56.5879C99.7813 61.1627 106.068 64 113.021 64C126.604 64 137.635 53.1715 138 39.6877C137.904 39.3351 137.834 38.9918 137.736 38.6345Z" fill="#507255"/>
<path d="M33.96 35.7363V42.9092H15.1709V53.1924H36.4355V61H6.34766V18.4707H36.4355V26.0879H15.1709V35.7363H33.96ZM66.8408 17.5186C69.5068 17.5186 71.8132 17.8994 73.7598 18.6611C75.7064 19.3805 77.3991 20.375 78.8379 21.6445V30.5312C77.8223 29.7695 76.7643 29.029 75.6641 28.3096C74.5638 27.5902 73.3154 26.9977 71.9189 26.5322C70.5648 26.0667 68.9567 25.834 67.0947 25.834C64.5557 25.834 62.2493 26.4476 60.1758 27.6748C58.1022 28.902 56.4518 30.5524 55.2246 32.626C53.9974 34.6995 53.3838 37.0693 53.3838 39.7354C53.3838 42.359 53.9974 44.7288 55.2246 46.8447C56.4518 48.9183 58.1022 50.5687 60.1758 51.7959C62.2493 52.9808 64.5557 53.5732 67.0947 53.5732C69.93 53.5732 72.2998 53.1501 74.2041 52.3037C76.1507 51.415 77.9069 50.3359 79.4727 49.0664V57.6357C78.0339 58.9476 76.2354 60.0055 74.0771 60.8096C71.9189 61.5713 69.5068 61.9521 66.8408 61.9521C63.7939 61.9521 60.9163 61.4232 58.208 60.3652C55.4997 59.265 53.1087 57.7415 51.0352 55.7949C48.9616 53.806 47.3324 51.4574 46.1475 48.749C44.9626 46.0407 44.3701 43.0361 44.3701 39.7354C44.3701 36.4346 44.9626 33.43 46.1475 30.7217C47.3324 28.0133 48.9616 25.6859 51.0352 23.7393C53.1087 21.7503 55.4997 20.2269 58.208 19.1689C60.9163 18.0687 63.7939 17.5186 66.8408 17.5186Z" fill="#507255"/>
<path d="M74.8457 47.0137V83.2686H72.1602L50.8369 61.3008V83H43.3711V46.7451H46.0566L67.3799 69.0352V47.0137H74.8457ZM101.218 46.7451L117.976 83H109.221L106.481 76.2861H92.248L89.5088 83H80.7539L97.5117 46.7451H101.218ZM99.3916 58.9375L94.8799 69.9482H103.903L99.3916 58.9375ZM150.363 47.0137L133.605 83.2686H129.899L113.142 47.0137H121.896L131.726 70.8076L141.608 47.0137H150.363ZM186.94 47.0137L173.029 69.4111V83H165.402V69.7871L151.438 47.0137H160.192L169.162 62.1602L178.186 47.0137H186.94Z" fill="#FFFAFF"/>
</svg>
