<?xml version="1.0" ?><svg viewBox="0 0 512 512" xmlns="http://www.w3.org/2000/svg"><g id="a"/><g id="b"/><g id="c"><g><path d="M188.14111,135.49414l-55.50586,86.34277c-.69727,1.08447-.82861,2.43799-.354,3.63672,.4751,1.19824,1.49805,2.09424,2.74854,2.40674l11.38721,2.84668c2.9165,.72949,5.8584,1.0835,8.771,1.08301,11.15625-.00049,21.85205-5.19629,28.76074-14.40771l39.36914-52.49268c12.17969-16.24023,29.95557-26.76514,50.05176-29.63623l22.91504-3.27344h31.17529l-15.82471,18.98975c-11.99854,14.39795-11.05273,35.24951,2.19971,48.50244l3.33643,3.33643c.77881,.77881,1.82959,1.20215,2.94629,1.16943,1.10107-.03223,2.14014-.51709,2.87207-1.34082l63.40674-71.33252,111.1792-47.64795-3.15137-7.35352-112,48c-.54053,.23193-1.02344,.57959-1.41406,1.01953l-61.18164,68.8291-.33643-.33691c-10.30762-10.30762-11.04346-26.52539-1.71143-37.72412l21.29199-25.55029c.99365-1.19189,1.20801-2.85156,.5498-4.25732-.65869-1.40527-2.07031-2.30322-3.62256-2.30322h-40c-.18945,0-.37842,.01367-.56543,.04004l-23.19629,3.31348c-22.21191,3.17383-41.8584,14.80664-55.3208,32.75635l-39.36914,52.49268c-6.77637,9.03418-18.23633,13.10156-29.19092,10.36377l-5.97705-1.49414,52.49023-81.65186c10.10449-15.71826,25.58447-27.12842,43.58838-32.12988l114.61133-31.83643c.33105-.0918,.64844-.22607,.94531-.39893l96-56-4.03125-6.91016-95.55322,55.73926-114.11328,31.69824c-19.89893,5.52734-37.0083,18.13916-48.17676,35.51172Z"/><path d="M387.79443,326.73486l-.41016-1.23096c-3.63916-10.91718-13.30676-18.16974-24.2041-19.06317l16.14795-24.22198c.58838-.88281,.80225-1.96289,.59424-3.00342-.20801-1.04004-.8208-1.95508-1.70361-2.54346l-4.03076-2.68701c-6.22314-4.14795-13.68799-5.62646-21.02295-4.15918-7.33398,1.4668-13.65771,5.70166-17.80615,11.9248l-.46851,.7027-.70239-.46832c-5.33765-3.55847-11.59021-5.14447-17.88977-4.60016,2.38416-6.69574,3.70569-13.89465,3.70569-21.41003,0-35.34625-28.65381-64-64-64s-64,28.65375-64,64c0,6.06152,.84863,11.92334,2.42346,17.47968l-34.49231,14.78247c-6.99951,3-12.77051,8.03711-16.68896,14.56738l-17.86328,29.77344-110.48145,31.56592,2.19775,7.69238,112-32c.97559-.27881,1.80859-.91797,2.33105-1.78809l18.67627-31.12744c3.04736-5.0791,7.53564-8.99707,12.97998-11.33008l34.01807-14.57922c1.7356,4.07611,3.87793,7.93549,6.3833,11.52557-2.25586,5.4162-6.1814,10.00397-11.23877,13.03851l-18.30713,10.98438c-1.25195,.75146-1.99512,2.125-1.93896,3.5835,.05615,1.45898,.90234,2.77148,2.20801,3.42432l32,16c.55957,.27979,1.17236,.42236,1.78906,.42236,.32471,0,.65039-.03955,.97021-.11963l24.88452-6.22113-26.62622,36.61127-5.49512-4.396c-19.81445-15.85156-47.83301-16.29004-68.1333-1.06445l4.7998,6.40039c17.38232-13.03613,41.37061-12.66162,58.33594,.91113l8.76514,7.01221c.85303,.68262,1.95068,.98682,3.03174,.84082,1.08301-.14551,2.05957-.72803,2.70215-1.61182l53.66699-73.79199c5.15088-7.08203,14.19189-9.979,22.5-7.20996l2.44971,.81641-57.146,88.89404c-6.31738,9.82666-18.22461,14.72461-29.62744,12.19189l-50.21045-11.15771c-1.15137-.25537-2.35889,.00977-3.29736,.72754L13.57031,492.82275l4.85938,6.35449,134.52051-102.86865,48.39258,10.75391c8.4729,1.88141,17.15247,.55597,24.54517-3.32184l32.40796-5.40131c4.1449-.69086,8.07983-2.10229,11.66541-4.11017l32.88782-10.9621c7.55664-2.51904,14.15137-7.55615,18.56934-14.18359l8.42419-12.63635,55.78186-24.79187c1.88281-.83691,2.82178-2.96631,2.16992-4.92041Zm-139.79077-118.0965l.00024,39.3363-32.98999,32.98956c-4.44727-7.27911-7.01001-15.83508-7.01001-24.98956,0-23.78387,17.2981-43.52759,39.99976-47.3363Zm-6.81934,114.93231l-32.71899,8.17981-24.15918-12.07959,12.05908-7.23584c5.30737-3.18469,9.65674-7.69208,12.66418-13.02252,9.23157,9.97314,21.59656,16.99432,35.53467,19.51111l-3.37976,4.64703Zm-14.88574-29.88947l21.70532-21.70654,.00488,31.3371c-8.10596-1.35907-15.52319-4.74969-21.71021-9.63055Zm37.70544,.45941l-.00012-22.16595,16.36035,16.3609c-5.92261,.1402-11.64868,2.1637-16.36023,5.80505Zm-.00012-46.16595l-.0083-39.33771c22.70581,3.80518,40.0083,23.55084,40.0083,47.33771,0,9.15448-2.56274,17.71039-7.00989,24.98944l-32.99011-32.98944Zm-7.02344,142.47308l-19.1178,3.18628c.54932-.72522,1.07507-1.47339,1.57239-2.24683l62.58008-97.19922c2.96338-4.44482,7.48047-7.46973,12.71875-8.51758,5.23926-1.04785,10.57178,.00781,15.0166,2.9707l.82129,.54785-54.34766,88.31445c-4.24316,6.89551-11.25732,11.61377-19.24365,12.94434Zm57.78174-25.80176c-3.43652,5.1543-8.56592,9.07227-14.44287,11.03125l-17.08154,5.69366,56.13184-91.21448,2.64551-3.96844c2.96338-4.44482,7.48047-7.46973,12.71875-8.51758,5.24219-1.04785,10.57178,.00781,15.0166,2.9707l.70264,.46826-55.69092,83.53662Zm23.37427-20.63953l19.59888-29.39856c8.84058-1.40442,17.45203,3.21301,21.2002,11.26562l-40.79907,18.13293Z"/><path d="M240,428c-11.02783,0-20,8.97217-20,20s8.97217,20,20,20,20-8.97217,20-20-8.97217-20-20-20Zm0,32c-6.6167,0-12-5.3833-12-12s5.3833-12,12-12,12,5.3833,12,12-5.3833,12-12,12Z"/><polygon points="156 440 148 440 148 460 128 460 128 468 148 468 148 488 156 488 156 468 176 468 176 460 156 460 156 440"/><polygon points="116 120 124 120 124 100 144 100 144 92 124 92 124 72 116 72 116 92 96 92 96 100 116 100 116 120"/><path d="M200,68c11.02783,0,20-8.97217,20-20s-8.97217-20-20-20-20,8.97217-20,20,8.97217,20,20,20Zm0-32c6.6167,0,12,5.3833,12,12s-5.3833,12-12,12-12-5.3833-12-12,5.3833-12,12-12Z"/><path d="M474.3999,420.7998c-20.34717-15.26025-36.09521-35.80908-45.5415-59.4248l-1.14453-2.86084c-.60742-1.51855-2.07812-2.51416-3.71387-2.51416s-3.10645,.99561-3.71387,2.51416l-1.14453,2.86133c-9.44629,23.61523-25.19434,44.16406-45.5415,59.42432-1.00732,.75586-1.6001,1.94141-1.6001,3.2002s.59277,2.44434,1.6001,3.2002c20.34717,15.26025,36.09521,35.80908,45.5415,59.4248l1.14453,2.86084c.60742,1.51855,2.07812,2.51416,3.71387,2.51416s3.10645-.99561,3.71387-2.51416l1.14453-2.86133c9.44629-23.61523,25.19434-44.16406,45.5415-59.42432,1.00732-.75586,1.6001-1.94141,1.6001-3.2002s-.59277-2.44434-1.6001-3.2002Z"/><path d="M37.78125,267.32812c15.12256,10.08154,27.4126,24.00342,35.54053,40.26025l3.10059,6.20068c.67773,1.35498,2.0625,2.21094,3.57764,2.21094s2.8999-.85596,3.57764-2.21094l3.10059-6.20117c8.12793-16.25635,20.41797-30.17822,35.54053-40.25977,1.11279-.7417,1.78125-1.99072,1.78125-3.32812s-.66846-2.58643-1.78125-3.32812c-15.12256-10.08154-27.4126-24.00342-35.54053-40.26025l-3.10059-6.20068c-.67773-1.35498-2.0625-2.21094-3.57764-2.21094s-2.8999,.85596-3.57764,2.21094l-3.10059,6.20117c-8.12793,16.25635-20.41797,30.17822-35.54053,40.25977-1.11279,.7417-1.78125,1.99072-1.78125,3.32812s.66846,2.58643,1.78125,3.32812Z"/><path d="M474.21875,204.67188c-15.12256-10.08154-27.4126-24.00342-35.54053-40.26025l-3.10059-6.20068c-.67773-1.35498-2.0625-2.21094-3.57764-2.21094s-2.8999,.85596-3.57764,2.21094l-3.10059,6.20117c-8.12793,16.25635-20.41797,30.17822-35.54053,40.25977-1.11279,.7417-1.78125,1.99072-1.78125,3.32812s.66846,2.58643,1.78125,3.32812c15.12256,10.08154,27.4126,24.00342,35.54053,40.26025l3.10059,6.20068c.67773,1.35498,2.0625,2.21094,3.57764,2.21094s2.8999-.85596,3.57764-2.21094l3.10059-6.20117c8.12793-16.25635,20.41797-30.17822,35.54053-40.25977,1.11279-.7417,1.78125-1.99072,1.78125-3.32812s-.66846-2.58643-1.78125-3.32812Z"/></g></g><g id="d"/></svg>