<?xml version="1.0" ?><svg enable-background="new 0 0 32 32" id="Filled_Outline" version="1.1" viewBox="0 0 32 32" xml:space="preserve" xmlns="http://www.w3.org/2000/svg" xmlns:xlink="http://www.w3.org/1999/xlink"><title/><desc/><g><g><path d="M23,7H9C6.791,7,5,5.209,5,3V1h22v2C27,5.209,25.209,7,23,7z" fill="#7CA7C6"/><path d="M24,13H12c-1.657,0-3-1.343-3-3v0c0-1.657,1.343-3,3-3h12c1.657,0,3,1.343,3,3v0    C27,11.657,25.657,13,24,13z" fill="#7CA7C6"/><path d="M22,19h-8c-1.657,0-3-1.343-3-3v0c0-1.657,1.343-3,3-3h8c1.657,0,3,1.343,3,3v0C25,17.657,23.657,19,22,19    z" fill="#7CA7C6"/><path d="M24,25h-6c-1.657,0-3-1.343-3-3v0c0-1.657,1.343-3,3-3h6c1.657,0,3,1.343,3,3v0C27,23.657,25.657,25,24,25    z" fill="#7CA7C6"/><path d="M24,25c0,3,3,5,5,6c-6,0-11-2-11-6H24z" fill="#7CA7C6"/><polygon fill="#FFF3AE" points="13,1 5,1 3,11 6,11 4,19 13,7 10,7   "/></g><g><rect fill="#1A1A1A" height="2" width="2" x="18" y="12"/><path d="M29.447,30.105c-1.472-0.736-3.824-2.209-4.341-4.281C26.772,25.341,28,23.82,28,22    c0-1.744-1.128-3.214-2.687-3.761C25.746,17.6,26,16.829,26,16s-0.254-1.6-0.687-2.239C26.872,13.214,28,11.744,28,10    c0-1.352-0.677-2.543-1.706-3.268C27.331,5.815,28,4.49,28,3V1c0-0.553-0.447-1-1-1H13h-1H5C4.523,0,4.113,0.337,4.02,0.804l-2,10    c-0.059,0.294,0.018,0.599,0.207,0.83C2.417,11.865,2.7,12,3,12h1.719L3.03,18.758c-0.116,0.461,0.11,0.94,0.54,1.146    C3.708,19.969,3.854,20,4,20c0.307,0,0.606-0.142,0.8-0.4l4.803-6.404c0.33,0.247,0.7,0.426,1.088,0.562    C10.255,14.397,10,15.169,10,16c0,2.206,1.794,4,4,4h0.556C14.212,20.591,14,21.268,14,22c0,1.887,1.317,3.463,3.077,3.882    C17.69,29.627,22.229,32,29,32c0.464,0,0.866-0.319,0.974-0.771C30.08,30.778,29.862,30.312,29.447,30.105z M13.618,2H26v1    c0,1.654-1.346,3-3,3H13h-1h-0.382L13.618,2z M6.788,10.385C6.599,10.142,6.308,10,6,10H4.22l1.6-8h5.562L9.105,6.553    C8.95,6.862,8.967,7.23,9.149,7.525S9.653,8,10,8h1l-4.829,6.438l0.799-3.196C7.045,10.943,6.978,10.627,6.788,10.385z M12,16    c0-1.103,0.897-2,2-2h2v-2h-2h-2c-0.436,0-0.855-0.145-1.199-0.402L13.5,8H23h1c1.103,0,2,0.897,2,2s-0.897,2-2,2h-2v2    c1.103,0,2,0.897,2,2s-0.897,2-2,2h-4h-4C12.897,18,12,17.103,12,16z M16,22c0-1.103,0.897-2,2-2h4h2c1.103,0,2,0.897,2,2    s-0.897,2-2,2h-6C16.897,24,16,23.103,16,22z M19.152,26h3.942c0.252,1.321,1.002,2.573,2.203,3.697    C22.282,29.179,19.78,27.979,19.152,26z" fill="#1A1A1A"/></g></g></svg>