<?xml version="1.0" ?><svg id="icon" viewBox="0 0 32 32" xmlns="http://www.w3.org/2000/svg"><defs><style>.cls-1{fill:none;}</style></defs><title/><rect height="2" width="8" x="10" y="18"/><rect height="2" width="12" x="10" y="13"/><rect height="2" width="5" x="10" y="23"/><path d="M25,5H22V4a2,2,0,0,0-2-2H12a2,2,0,0,0-2,2V5H7A2,2,0,0,0,5,7V28a2,2,0,0,0,2,2H25a2,2,0,0,0,2-2V7A2,2,0,0,0,25,5ZM12,4h8V8H12ZM25,28H7V7h3v3H22V7h3Z"/><rect class="cls-1" data-name="&lt;Transparent Rectangle&gt;" height="32" id="_Transparent_Rectangle_" width="32"/></svg>