<svg width="86" height="68" viewBox="0 0 86 68" fill="none" xmlns="http://www.w3.org/2000/svg">
<path d="M61.3741 11C59.6677 11 58.0001 11.1757 56.3907 11.5097C55.7321 11.6427 55.307 12.2859 55.4424 12.9441C55.4991 13.217 55.6481 13.4625 55.8644 13.6387L59.3993 30.4144C57.4441 31.2502 56.0588 33.1952 56.0588 35.4428C56.0588 35.5263 56.0787 35.6042 56.0825 35.687L54.2404 34.8975C52.9063 34.3279 51.4597 34.2777 50.146 34.6722C48.8323 35.0668 47.6477 35.9086 46.8483 37.119L41.6586 44.983C40.2347 42.0762 39.4301 38.8149 39.4301 35.3553C39.4287 34.6868 38.8871 34.145 38.2186 34.1437C37.5473 34.141 37.0013 34.684 37 35.3553C37 39.8619 38.2302 44.0955 40.3689 47.7189C40.5983 48.1011 41.0188 48.3269 41.4642 48.3069C41.7555 48.3663 42.0583 48.3144 42.3153 48.167L57.6756 39.305C57.7278 39.3568 57.7922 39.3953 57.8463 39.4448L56.7439 55.5781H56.6681C55.9977 55.5755 55.4522 56.1168 55.4495 56.7872V60.4074C54.7828 60.4101 54.243 60.9498 54.2404 61.6165V65.2367H52.1897C51.5183 65.234 50.9724 65.7769 50.9711 66.4481C50.9684 67.1223 51.5156 67.6694 52.1897 67.6667H71.5163C72.1904 67.6694 72.7375 67.1223 72.7349 66.4481C72.7337 65.7769 72.1876 65.2341 71.5163 65.2367H68.8018V61.6165C68.7993 60.9498 68.2593 60.4101 67.5927 60.4074V56.7872C67.5902 56.1196 67.0488 55.5795 66.3812 55.5781H66.2981L65.21 39.5445L66.5779 42.406C67.6286 44.5967 70.1235 45.7358 72.467 45.0945L82.135 42.444C80.7446 46.5096 78.1936 50.0425 74.8757 52.6384C74.3494 53.0517 74.2571 53.8133 74.6694 54.3406C75.0831 54.8684 75.8464 54.9607 76.374 54.5469C80.6559 51.1969 83.7892 46.4464 85.0819 40.9813C85.2364 40.3308 84.8357 39.6777 84.1858 39.5209C78.4901 38.6407 72.6228 37.3121 66.9098 36.1757C66.9427 35.9338 66.9833 35.6934 66.9833 35.4432C66.9833 33.0622 65.4273 31.0413 63.2896 30.2986L64.5627 28.8498C66.5476 26.5848 66.6243 23.2057 64.75 20.8484L58.9629 13.5629C59.7543 13.4771 60.5586 13.4279 61.374 13.4279C64.8005 13.4279 68.0304 14.21 70.9164 15.6068C71.5206 15.8985 72.247 15.6446 72.538 15.0402C72.8302 14.4366 72.5775 13.7103 71.9738 13.4185C68.767 11.8665 65.1711 11 61.3741 11ZM59.2143 17.7828L62.8511 22.3537C64.0049 23.8048 63.9568 25.8504 62.735 27.2447L61.5069 28.653L59.2143 17.7828ZM61.5259 32.4059C63.2157 32.4059 64.5534 33.7545 64.5533 35.4428C64.5533 35.7909 64.4855 36.1192 64.3803 36.4291C64.2981 36.5535 64.2394 36.6914 64.2072 36.837C63.9917 37.2558 63.6865 37.6153 63.3087 37.8896C63.2606 37.916 63.2147 37.9512 63.1712 37.9867C62.6984 38.2909 62.1373 38.4727 61.5258 38.4727C60.9074 38.4727 60.3367 38.2875 59.8592 37.9771C59.8244 37.9507 59.7879 37.9231 59.7502 37.8993C58.9862 37.3523 58.4889 36.4647 58.4889 35.4432C58.4889 33.986 59.4936 32.787 60.855 32.4844C60.947 32.4821 61.0385 32.4693 61.1276 32.4466C61.2591 32.4277 61.3894 32.4059 61.5259 32.4059ZM52.0593 36.8487C52.4727 36.8714 52.8888 36.9667 53.2897 37.1379L55.1721 37.9439L45.5491 43.4987L48.8824 38.4536C49.6034 37.3622 50.8191 36.7818 52.0593 36.8487ZM67.5382 38.7762L78.4343 40.936L71.8222 42.7473C70.5949 43.0829 69.3236 42.505 68.7734 41.358L67.5382 38.7762ZM60.1911 40.7155C60.6208 40.8251 61.0637 40.9002 61.5259 40.9002C61.9852 40.9002 62.4242 40.8259 62.8511 40.7178L63.8635 55.5778H59.1788L60.1911 40.7155ZM57.8796 58.0057H65.1627V60.4072H57.8796V58.0057ZM56.6681 62.8349H66.3812V65.2366H56.6681V62.8349Z" fill="black"/>
<path d="M47.7306 18.9751L37.3297 11.4561C37.0437 11.2493 36.6657 11.2203 36.3513 11.3808C36.037 11.5416 35.8392 11.8648 35.8392 12.2178V17.8975L26.9288 11.4561C26.6428 11.2493 26.2649 11.2203 25.9506 11.3808C25.6361 11.5416 25.4385 11.8648 25.4385 12.2178V17.8975L16.5279 11.4561C16.2419 11.2493 15.864 11.2203 15.5495 11.3808C15.2352 11.5416 15.0374 11.8648 15.0374 12.2178V18.7968H13.0951L11.8593 0.875276C11.8252 0.382422 11.4156 0 10.9216 0H5.99554C5.50156 0 5.09207 0.382328 5.05786 0.875276L3.82197 18.7969H0.939844C0.420768 18.7969 0 19.2176 0 19.7367V42.293C0 42.812 0.420768 43.2328 0.939844 43.2328H47.1802C47.6991 43.2328 48.12 42.812 48.12 42.293V19.7367C48.12 19.4349 47.9752 19.1517 47.7306 18.9751ZM5.83587 16.9171H7.84149C8.36038 16.9171 8.78134 16.4962 8.78134 15.9772C8.78134 15.4582 8.36038 15.0374 7.84149 15.0374H5.96547L6.8728 1.87978H10.0444L11.2109 18.7968H5.70626L5.83587 16.9171ZM15.0373 22.5563H9.80342C9.28453 22.5563 8.86357 22.9772 8.86357 23.4962C8.86357 24.0152 9.28453 24.436 9.80342 24.436H15.0373V26.3156H9.80342C9.28453 26.3156 8.86357 26.7365 8.86357 27.2555C8.86357 27.7745 9.28453 28.1953 9.80342 28.1953H15.0373V30.075H12.5256C12.0067 30.075 11.5857 30.4959 11.5857 31.0148C11.5857 31.5339 12.0067 31.9547 12.5256 31.9547H15.0373V33.8343H9.80342C9.28453 33.8343 8.86357 34.2551 8.86357 34.7741C8.86357 35.2931 9.28453 35.714 9.80342 35.714H15.0373V37.5935H9.80342C9.28453 37.5935 8.86357 38.0143 8.86357 38.5333C8.86357 39.0524 9.28453 39.4732 9.80342 39.4732H15.0373V41.353H1.87969V20.6765H4.69574L4.69922 20.6767H12.2197L12.2233 20.6765H15.0373V22.5563ZM46.2403 41.353H16.917V14.0569L25.8276 20.4983C26.1136 20.7051 26.4915 20.7344 26.8059 20.5735C27.1202 20.4128 27.3181 20.0896 27.3181 19.7366V14.0569L36.2284 20.4982C36.5144 20.7051 36.8923 20.7341 37.2066 20.5735C37.5211 20.4128 37.7187 20.0896 37.7187 19.7366V14.0569L46.2403 20.2169V41.353Z" fill="black"/>
<path d="M9.80342 31.9547H9.8256C10.3447 31.9547 10.7654 31.5339 10.7654 31.0148C10.7654 30.4959 10.3447 30.075 9.8256 30.075H9.80342C9.28453 30.075 8.86357 30.4959 8.86357 31.0148C8.86357 31.5338 9.28443 31.9547 9.80342 31.9547Z" fill="black"/>
<path d="M27.8192 26.3154H24.0596C23.5405 26.3154 23.1198 26.7363 23.1198 27.2553V31.0145C23.1198 31.5334 23.5405 31.9543 24.0596 31.9543H27.8192C28.3382 31.9543 28.759 31.5334 28.759 31.0145V27.2553C28.759 26.7364 28.3382 26.3154 27.8192 26.3154ZM26.8793 30.0746H24.9995V28.1951H26.8793V30.0746Z" fill="black"/>
<path d="M34.3981 27.2553V31.0145C34.3981 31.5334 34.819 31.9543 35.3379 31.9543H39.0975C39.6166 31.9543 40.0373 31.5334 40.0373 31.0145V27.2553C40.0373 26.7363 39.6166 26.3154 39.0975 26.3154H35.3379C34.819 26.3154 34.3981 26.7364 34.3981 27.2553ZM36.2778 28.1951H38.1577V30.0746H36.2778V28.1951Z" fill="black"/>
<path d="M30.2338 37.5935H30.2117C29.6928 37.5935 29.2718 38.0143 29.2718 38.5333C29.2718 39.0524 29.6928 39.4732 30.2117 39.4732H30.2338C30.7529 39.4732 31.1737 39.0524 31.1737 38.5333C31.1737 38.0143 30.7529 37.5935 30.2338 37.5935Z" fill="black"/>
<path d="M27.5114 37.5935H24.0598C23.5407 37.5935 23.12 38.0143 23.12 38.5333C23.12 39.0524 23.5407 39.4732 24.0598 39.4732H27.5114C28.0303 39.4732 28.4512 39.0524 28.4512 38.5333C28.4512 38.0143 28.0303 37.5935 27.5114 37.5935Z" fill="black"/>
<path d="M37.2222 60.2222V64.6667L45 56.8889L37.2222 49.1111V53.6667C31.6667 53.6667 27.7778 51.8889 25 48C26.1111 53.5556 29.4444 59.1111 37.2222 60.2222Z" fill="black"/>
</svg>
